# xmcd
#
# Track frame offsets:
#	150
#	12796
#	27360
#	43055
#	67294
#	77669
#	101808
#	118833
#	133720
#	145496
#	157464
#	167224
#	195483
#	205455
#	216085
#	228772
#	239092
#	250894
#	263438
#	277115
#	292459
#	310405
#	330318
#	343573
#
# Disc length: 4780 seconds
#
# Revision: 2
# Processed by: cddbd v1.5.2PL0 Copyright (c) Steve Scherf et al.
# Submitted via: EasyCDDAExtractor 12.0.1.1
#
DISCID=8112aa18
DTITLE=Animals - Animalism and Bonus Hits
DYEAR=1995
DGENRE=Blues
TTITLE0=All Night Long
TTITLE1=Shake
TTITLE2=The Other Side Of Life
TTITLE3=Rock Me Baby
TTITLE4=Lucille
TTITLE5=Smoke Stack Lightning
TTITLE6=Hey Gyp
TTITLE7=Hit The Road Jack
TTITLE8=Outcast
TTITLE9=Louisiana Blues
TTITLE10=That's All I Am To You
TTITLE11=Going Down Slow
TTITLE12=Don't Let Me Be Misunderstood  (Single Version)
TTITLE13=Blue Feeling  (Alternate Version)
TTITLE14=Jailhouse Rock  (BBC)
TTITLE15=Gonna Send You Back To Walker  (BBC)
TTITLE16=Heartbreak Hotel  (BBC)
TTITLE17=Work Song  (BBC)
TTITLE18=A Girl Named Sandoz  (Single Version)
TTITLE19=Ain't That So  (Single Version)
TTITLE20=Gratefully Dead  (Single Version)
TTITLE21=Monterey  (Single Version)
TTITLE22=When I Was Youn  (Single Version)
TTITLE23=San Franciscan Nights  (Single Version)
EXTD=YEAR: 1995
EXTT0=
EXTT1=
EXTT2=
EXTT3=
EXTT4=
EXTT5=
EXTT6=
EXTT7=
EXTT8=
EXTT9=
EXTT10=
EXTT11=
EXTT12=
EXTT13=
EXTT14=
EXTT15=
EXTT16=
EXTT17=
EXTT18=
EXTT19=
EXTT20=
EXTT21=
EXTT22=
EXTT23=
PLAYORDER=
